<svg width="26" height="25" viewBox="0 0 26 25" fill="none" xmlns="http://www.w3.org/2000/svg">
<g clip-path="url(#clip0_5_38)">
<path d="M12.625 0.5C5.9975 0.5 0.625 5.8725 0.625 12.5C0.625 19.1275 5.9975 24.5 12.625 24.5C19.2525 24.5 24.625 19.1275 24.625 12.5C24.625 5.8725 19.2525 0.5 12.625 0.5ZM9.6875 17.4738H7.2575V9.65375H9.6875V17.4738ZM8.4575 8.69375C7.69 8.69375 7.19375 8.15 7.19375 7.4775C7.19375 6.79125 7.705 6.26375 8.48875 6.26375C9.2725 6.26375 9.7525 6.79125 9.7675 7.4775C9.7675 8.15 9.2725 8.69375 8.4575 8.69375ZM18.5625 17.4738H16.1325V13.14C16.1325 12.1313 15.78 11.4462 14.9013 11.4462C14.23 11.4462 13.8313 11.91 13.655 12.3563C13.59 12.515 13.5738 12.74 13.5738 12.9638V17.4725H11.1425V12.1475C11.1425 11.1713 11.1112 10.355 11.0787 9.6525H13.19L13.3013 10.7388H13.35C13.67 10.2288 14.4538 9.47625 15.765 9.47625C17.3638 9.47625 18.5625 10.5475 18.5625 12.85V17.4738Z" fill="white"/>
</g>
<defs>
<clipPath id="clip0_5_38">
<rect width="25" height="25" fill="white" transform="translate(0.125)"/>
</clipPath>
</defs>
</svg>
