<svg width="22" height="25" viewBox="0 0 22 25" fill="none" xmlns="http://www.w3.org/2000/svg">
<g clip-path="url(#clip0_5_42)">
<path d="M3.25 23.4375C1.52637 23.4375 0.125 22.0361 0.125 20.3125V4.6875C0.125 2.96387 1.52637 1.5625 3.25 1.5625H18.875C20.5986 1.5625 22 2.96387 22 4.6875V20.3125C22 22.0361 20.5986 23.4375 18.875 23.4375H3.25ZM17.7568 19.3359L12.6885 13.5449L18.6504 5.66406H13.9824L10.3301 10.4443L6.14551 5.66406H3.82617L9.24609 11.8604L3.52832 19.3359H8.31348L11.6191 14.9658L15.4375 19.3359H17.7568ZM15.9111 7.05078L7.61523 18.0225H6.2334L14.6221 7.05078H15.9063H15.9111Z" fill="white"/>
</g>
<defs>
<clipPath id="clip0_5_42">
<rect width="21.875" height="25" fill="white" transform="matrix(1 0 0 -1 0.125 25)"/>
</clipPath>
</defs>
</svg>
