<svg width="30" height="30" viewBox="0 0 30 30" fill="none" xmlns="http://www.w3.org/2000/svg">
<rect width="30" height="30" rx="4" fill="#127878"/>
<path fill-rule="evenodd" clip-rule="evenodd" d="M20.6252 12.4994C20.6278 13.7047 20.2406 14.8786 19.5214 15.8458L14.9999 21.8748L10.4784 15.8458C9.94902 15.1305 9.59686 14.2999 9.45085 13.4221C9.30484 12.5443 9.36916 11.6444 9.63851 10.7964C9.90787 9.94825 10.3746 9.17615 11.0003 8.54347C11.626 7.91079 12.3929 7.43558 13.238 7.15688C14.0831 6.87817 14.9822 6.80392 15.8616 6.94023C16.7409 7.07653 17.5754 7.4195 18.2964 7.94096C19.0175 8.46243 19.6045 9.14751 20.0093 9.93993C20.4142 10.7324 20.6252 11.6095 20.6252 12.4994ZM22.5003 12.4994C22.5003 14.1744 21.9515 15.7195 21.0252 16.9671L16.1712 23.4374L14.9999 25L13.8273 23.4374L8.97459 16.9671C8.26791 16.0138 7.7975 14.9065 7.602 13.7361C7.4065 12.5656 7.4915 11.3655 7.85002 10.2343C8.20853 9.10315 8.83032 8.07317 9.66431 7.22902C10.4983 6.38488 11.5207 5.75066 12.6474 5.37847C13.7742 5.00629 14.9732 4.90676 16.1459 5.08807C17.3186 5.26937 18.4315 5.72634 19.3933 6.42143C20.3551 7.11651 21.1382 8.02987 21.6783 9.08646C22.2184 10.1431 22.5001 11.3127 22.5003 12.4994ZM14.9999 14.9995C15.663 14.9995 16.2989 14.7361 16.7678 14.2672C17.2366 13.7984 17.5 13.1624 17.5 12.4994C17.5 11.8363 17.2366 11.2004 16.7678 10.7315C16.2989 10.2626 15.663 9.99923 14.9999 9.99923C14.3368 9.99923 13.7009 10.2626 13.232 10.7315C12.7632 11.2004 12.4998 11.8363 12.4998 12.4994C12.4998 13.1624 12.7632 13.7984 13.232 14.2672C13.7009 14.7361 14.3368 14.9995 14.9999 14.9995Z" fill="white"/>
</svg>
