<svg width="30" height="30" viewBox="0 0 30 30" fill="none" xmlns="http://www.w3.org/2000/svg">
<rect width="30" height="30" rx="4" fill="#127878"/>
<path d="M20.0001 5H10.0001C9.62122 5 9.25786 5.15051 8.98995 5.41842C8.72204 5.68633 8.57153 6.04969 8.57153 6.42857V23.5714C8.57153 23.9503 8.72204 24.3137 8.98995 24.5816C9.25786 24.8495 9.62122 25 10.0001 25H20.0001C20.379 25 20.7423 24.8495 21.0103 24.5816C21.2782 24.3137 21.4287 23.9503 21.4287 23.5714V6.42857C21.4287 6.04969 21.2782 5.68633 21.0103 5.41842C20.7423 5.15051 20.379 5 20.0001 5ZM15.7144 23.5714H14.2858V22.1429H15.7144V23.5714ZM10.0001 20.7143V6.42857H20.0001V20.7143H10.0001Z" fill="white"/>
</svg>
