<svg width="30" height="31" viewBox="0 0 30 31" fill="none" xmlns="http://www.w3.org/2000/svg">
<rect y="0.5" width="30" height="30" rx="4" fill="#127878"/>
<path d="M19.36 17.5C19.44 16.84 19.5 16.18 19.5 15.5C19.5 14.82 19.44 14.16 19.36 13.5H22.74C22.9 14.14 23 14.81 23 15.5C23 16.19 22.9 16.86 22.74 17.5M17.59 23.06C18.19 21.95 18.65 20.75 18.97 19.5H21.92C20.9512 21.1683 19.4141 22.432 17.59 23.06ZM17.34 17.5H12.66C12.56 16.84 12.5 16.18 12.5 15.5C12.5 14.82 12.56 14.15 12.66 13.5H17.34C17.43 14.15 17.5 14.82 17.5 15.5C17.5 16.18 17.43 16.84 17.34 17.5ZM15 23.46C14.17 22.26 13.5 20.93 13.09 19.5H16.91C16.5 20.93 15.83 22.26 15 23.46ZM11 11.5H8.08C9.03886 9.82721 10.5748 8.56149 12.4 7.94C11.8 9.05 11.35 10.25 11 11.5ZM8.08 19.5H11C11.35 20.75 11.8 21.95 12.4 23.06C10.5786 22.4317 9.04485 21.1677 8.08 19.5ZM7.26 17.5C7.1 16.86 7 16.19 7 15.5C7 14.81 7.1 14.14 7.26 13.5H10.64C10.56 14.16 10.5 14.82 10.5 15.5C10.5 16.18 10.56 16.84 10.64 17.5M15 7.53C15.83 8.73 16.5 10.07 16.91 11.5H13.09C13.5 10.07 14.17 8.73 15 7.53ZM21.92 11.5H18.97C18.657 10.2615 18.1936 9.0659 17.59 7.94C19.43 8.57 20.96 9.84 21.92 11.5ZM15 5.5C9.47 5.5 5 10 5 15.5C5 18.1522 6.05357 20.6957 7.92893 22.5711C8.85752 23.4997 9.95991 24.2362 11.1732 24.7388C12.3864 25.2413 13.6868 25.5 15 25.5C17.6522 25.5 20.1957 24.4464 22.0711 22.5711C23.9464 20.6957 25 18.1522 25 15.5C25 14.1868 24.7413 12.8864 24.2388 11.6732C23.7362 10.4599 22.9997 9.35752 22.0711 8.42893C21.1425 7.50035 20.0401 6.76375 18.8268 6.2612C17.6136 5.75866 16.3132 5.5 15 5.5Z" fill="white"/>
</svg>
