<svg width="78" height="60" viewBox="0 0 78 60" fill="none" xmlns="http://www.w3.org/2000/svg">
<path d="M31.7717 54.5644V5.52551H53.8738C56.1761 5.52551 58.2942 6.009 60.2281 6.97596C62.2081 7.89688 63.9118 9.16314 65.3392 10.7748C66.7666 12.3403 67.8717 14.1131 68.6545 16.0931C69.4834 18.073 69.8978 20.076 69.8978 22.1021C69.8978 24.1281 69.5754 26.062 68.9308 27.9038C68.2862 29.6996 67.3652 31.3343 66.168 32.8077C64.9709 34.2352 63.5434 35.4093 61.8858 36.3302L72.6605 54.5644H60.159L50.7657 38.7477H43.099V54.5644H31.7717ZM43.099 28.8708H53.4594C54.3803 28.8708 55.1861 28.5945 55.8768 28.042C56.6135 27.4434 57.2121 26.6376 57.6726 25.6246C58.133 24.6116 58.3633 23.4374 58.3633 22.1021C58.3633 20.7667 58.087 19.6156 57.5344 18.6486C57.0279 17.6356 56.3833 16.8528 55.6005 16.3003C54.8177 15.7477 53.9889 15.4714 53.114 15.4714H43.099V28.8708Z" fill="black"/>
<path d="M6.07812 54.5645V5.52555H27.006C29.3543 5.52555 33.6366 5.24924 35.5706 6.21621C37.5505 7.13713 37.1131 9.16318 38.5405 10.7748C39.9679 12.3403 41.073 14.1131 41.8558 16.0931C42.6386 18.0731 43.03 20.0991 43.03 22.1712C43.03 24.98 42.3623 27.6506 41.027 30.1831C39.7377 32.7157 37.9189 34.7877 35.5706 36.3993C33.2683 37.9649 30.5285 38.7477 27.3514 38.7477H17.4054V54.5645H6.07812ZM17.4054 28.8708H26.6607C27.5355 28.8708 28.3413 28.6176 29.0781 28.1111C29.8148 27.6046 30.4134 26.8448 30.8739 25.8318C31.3343 24.8188 31.5646 23.5756 31.5646 22.1021C31.5646 20.5826 31.2883 19.3393 30.7357 18.3724C30.2292 17.3594 29.5616 16.6226 28.7327 16.1622C27.9499 15.7017 27.1211 15.4715 26.2462 15.4715H17.4054V28.8708Z" fill="black"/>
</svg>
